<mxfile host="app.diagrams.net" modified="2023-06-26T06:42:39.023Z" agent="Mozilla/5.0 (Windows NT 10.0; Win64; x64) AppleWebKit/537.36 (KHTML, like Gecko) Chrome/114.0.0.0 Safari/537.36 Edg/114.0.1823.58" etag="V3KY3fp9-hYHbKkvXIrR" version="21.5.0" type="github">
  <diagram name="第 1 页" id="OpDthlvLPTq0gWTyiU4q">
    <mxGraphModel dx="2756" dy="2324" grid="1" gridSize="10" guides="1" tooltips="1" connect="1" arrows="1" fold="1" page="1" pageScale="1" pageWidth="827" pageHeight="1169" math="0" shadow="0">
      <root>
        <mxCell id="0" />
        <mxCell id="1" parent="0" />
        <mxCell id="clwCwBsSRwlgGcYmcAVy-1" value="&lt;font style=&quot;font-size: 18px;&quot;&gt;Guest VM&lt;/font&gt;" style="rounded=0;whiteSpace=wrap;html=1;align=center;" parent="1" vertex="1">
          <mxGeometry x="-530" y="-125" width="280" height="80" as="geometry" />
        </mxCell>
        <mxCell id="clwCwBsSRwlgGcYmcAVy-2" value="" style="rounded=0;whiteSpace=wrap;html=1;fillColor=#FFFFCC;" parent="1" vertex="1">
          <mxGeometry x="-90" y="-190" width="680" height="410" as="geometry" />
        </mxCell>
        <mxCell id="clwCwBsSRwlgGcYmcAVy-3" value="&lt;font style=&quot;font-size: 18px;&quot;&gt;Qemu&lt;/font&gt;" style="text;html=1;strokeColor=none;fillColor=none;align=center;verticalAlign=middle;whiteSpace=wrap;rounded=0;" parent="1" vertex="1">
          <mxGeometry x="-90" y="-190" width="100" height="60" as="geometry" />
        </mxCell>
        <mxCell id="clwCwBsSRwlgGcYmcAVy-4" value="Migration&lt;br&gt;Module" style="rounded=0;whiteSpace=wrap;html=1;" parent="1" vertex="1">
          <mxGeometry x="447" y="-50" width="60" height="60" as="geometry" />
        </mxCell>
        <mxCell id="clwCwBsSRwlgGcYmcAVy-5" value="Backup Image&lt;br&gt;Module" style="rounded=0;whiteSpace=wrap;html=1;fillColor=#CCCCCC;" parent="1" vertex="1">
          <mxGeometry x="367" y="-50" width="60" height="60" as="geometry" />
        </mxCell>
        <mxCell id="clwCwBsSRwlgGcYmcAVy-6" value="VMstate Handler" style="rounded=0;whiteSpace=wrap;html=1;fillColor=#CCCCCC;" parent="1" vertex="1">
          <mxGeometry x="287" y="30" width="220" height="20" as="geometry" />
        </mxCell>
        <mxCell id="clwCwBsSRwlgGcYmcAVy-7" value="KVM" style="rounded=0;whiteSpace=wrap;html=1;" parent="1" vertex="1">
          <mxGeometry x="267" y="120" width="260" height="20" as="geometry" />
        </mxCell>
        <mxCell id="clwCwBsSRwlgGcYmcAVy-8" value="Source Host" style="rounded=0;whiteSpace=wrap;html=1;" parent="1" vertex="1">
          <mxGeometry x="127" y="150" width="400" height="30" as="geometry" />
        </mxCell>
        <mxCell id="clwCwBsSRwlgGcYmcAVy-12" value="Disk" style="shape=datastore;whiteSpace=wrap;html=1;" parent="1" vertex="1">
          <mxGeometry x="157" y="50" width="60" height="60" as="geometry" />
        </mxCell>
        <mxCell id="clwCwBsSRwlgGcYmcAVy-14" value="Destination Host" style="rounded=0;whiteSpace=wrap;html=1;" parent="1" vertex="1">
          <mxGeometry x="607" y="150" width="220" height="30" as="geometry" />
        </mxCell>
        <mxCell id="clwCwBsSRwlgGcYmcAVy-15" value="KVM" style="rounded=0;whiteSpace=wrap;html=1;" parent="1" vertex="1">
          <mxGeometry x="607" y="120" width="220" height="20" as="geometry" />
        </mxCell>
        <mxCell id="clwCwBsSRwlgGcYmcAVy-16" value="" style="rounded=0;whiteSpace=wrap;html=1;fillColor=#FFFFCC;" parent="1" vertex="1">
          <mxGeometry x="607" y="-100" width="220" height="210" as="geometry" />
        </mxCell>
        <mxCell id="clwCwBsSRwlgGcYmcAVy-17" value="Migration&lt;br&gt;Incoming&lt;br&gt;Module" style="rounded=0;whiteSpace=wrap;html=1;" parent="1" vertex="1">
          <mxGeometry x="627" y="-50" width="60" height="60" as="geometry" />
        </mxCell>
        <mxCell id="clwCwBsSRwlgGcYmcAVy-19" value="Qemu" style="text;html=1;strokeColor=none;fillColor=none;align=center;verticalAlign=middle;whiteSpace=wrap;rounded=0;" parent="1" vertex="1">
          <mxGeometry x="607" y="-100" width="60" height="30" as="geometry" />
        </mxCell>
        <mxCell id="clwCwBsSRwlgGcYmcAVy-20" value="" style="shape=flexArrow;endArrow=classic;startArrow=classic;html=1;rounded=0;exitX=1;exitY=0.5;exitDx=0;exitDy=0;entryX=0;entryY=0.5;entryDx=0;entryDy=0;endSize=3;startSize=3;width=7;endWidth=16;startWidth=16;fillColor=#9AC7BF;strokeColor=none;" parent="1" source="clwCwBsSRwlgGcYmcAVy-4" target="clwCwBsSRwlgGcYmcAVy-17" edge="1">
          <mxGeometry width="100" height="100" relative="1" as="geometry">
            <mxPoint x="567" y="-50" as="sourcePoint" />
            <mxPoint x="667" y="-150" as="targetPoint" />
          </mxGeometry>
        </mxCell>
        <mxCell id="clwCwBsSRwlgGcYmcAVy-21" value="Incremental&lt;br&gt;Checkpoint&lt;br&gt;Module" style="rounded=0;whiteSpace=wrap;html=1;fillColor=#CCCCCC;" parent="1" vertex="1">
          <mxGeometry x="707" y="-50" width="100" height="60" as="geometry" />
        </mxCell>
        <mxCell id="clwCwBsSRwlgGcYmcAVy-22" value="Guest VM" style="rounded=0;whiteSpace=wrap;html=1;align=center;" parent="1" vertex="1">
          <mxGeometry x="607" y="-150" width="220" height="40" as="geometry" />
        </mxCell>
        <mxCell id="clwCwBsSRwlgGcYmcAVy-23" value="FS" style="rounded=0;whiteSpace=wrap;html=1;" parent="1" vertex="1">
          <mxGeometry x="127" y="120" width="120" height="20" as="geometry" />
        </mxCell>
        <mxCell id="clwCwBsSRwlgGcYmcAVy-25" value="Failover&lt;br&gt;Module" style="rounded=0;whiteSpace=wrap;html=1;fillColor=#CCCCCC;" parent="1" vertex="1">
          <mxGeometry x="287" y="-50" width="60" height="60" as="geometry" />
        </mxCell>
        <mxCell id="clwCwBsSRwlgGcYmcAVy-24" value="" style="shape=flexArrow;endArrow=classic;html=1;rounded=0;exitX=0.5;exitY=0;exitDx=0;exitDy=0;fillColor=#A9C4EB;endSize=3;width=7;endWidth=14;startArrow=none;startFill=0;strokeColor=none;" parent="1" source="clwCwBsSRwlgGcYmcAVy-21" edge="1">
          <mxGeometry width="50" height="50" relative="1" as="geometry">
            <mxPoint x="247" y="-20" as="sourcePoint" />
            <mxPoint x="177" y="50" as="targetPoint" />
            <Array as="points">
              <mxPoint x="757" y="-70" />
              <mxPoint x="177" y="-70" />
            </Array>
          </mxGeometry>
        </mxCell>
        <mxCell id="clwCwBsSRwlgGcYmcAVy-27" value="" style="shape=flexArrow;endArrow=classic;html=1;rounded=0;exitX=0.5;exitY=0;exitDx=0;exitDy=0;fillColor=#A9C4EB;endSize=3;width=7;endWidth=14;startArrow=none;startFill=0;strokeColor=none;" parent="1" source="clwCwBsSRwlgGcYmcAVy-5" edge="1">
          <mxGeometry width="50" height="50" relative="1" as="geometry">
            <mxPoint x="767" y="-30" as="sourcePoint" />
            <mxPoint x="397" y="-67" as="targetPoint" />
            <Array as="points" />
          </mxGeometry>
        </mxCell>
        <mxCell id="clwCwBsSRwlgGcYmcAVy-28" value="" style="shape=flexArrow;endArrow=classic;html=1;rounded=0;fillColor=#A9C4EB;endSize=3;width=7;endWidth=14;startArrow=none;startFill=0;strokeColor=none;exitX=0.667;exitY=-0.022;exitDx=0;exitDy=0;exitPerimeter=0;" parent="1" source="clwCwBsSRwlgGcYmcAVy-12" target="clwCwBsSRwlgGcYmcAVy-25" edge="1">
          <mxGeometry width="50" height="50" relative="1" as="geometry">
            <mxPoint x="197" y="20" as="sourcePoint" />
            <mxPoint x="407" y="-57" as="targetPoint" />
            <Array as="points">
              <mxPoint x="197" y="-20" />
            </Array>
          </mxGeometry>
        </mxCell>
        <mxCell id="clwCwBsSRwlgGcYmcAVy-30" value="VMstate Handler" style="rounded=0;whiteSpace=wrap;html=1;fillColor=#CCCCCC;" parent="1" vertex="1">
          <mxGeometry x="627" y="30" width="180" height="20" as="geometry" />
        </mxCell>
        <mxCell id="clwCwBsSRwlgGcYmcAVy-31" value="RAM Device" style="rounded=0;whiteSpace=wrap;html=1;fillColor=#CCCCCC;" parent="1" vertex="1">
          <mxGeometry x="287" y="70" width="80" height="25" as="geometry" />
        </mxCell>
        <mxCell id="clwCwBsSRwlgGcYmcAVy-32" value="CPU States" style="rounded=0;whiteSpace=wrap;html=1;" parent="1" vertex="1">
          <mxGeometry x="377" y="70" width="80" height="25" as="geometry" />
        </mxCell>
        <mxCell id="clwCwBsSRwlgGcYmcAVy-33" value="..." style="text;html=1;strokeColor=none;fillColor=none;align=center;verticalAlign=middle;whiteSpace=wrap;rounded=0;" parent="1" vertex="1">
          <mxGeometry x="457" y="70" width="40" height="25" as="geometry" />
        </mxCell>
        <mxCell id="clwCwBsSRwlgGcYmcAVy-34" value="RAM Device" style="rounded=0;whiteSpace=wrap;html=1;fillColor=#CCCCCC;" parent="1" vertex="1">
          <mxGeometry x="627" y="70" width="80" height="25" as="geometry" />
        </mxCell>
        <mxCell id="clwCwBsSRwlgGcYmcAVy-35" value="CPU States" style="rounded=0;whiteSpace=wrap;html=1;" parent="1" vertex="1">
          <mxGeometry x="717" y="70" width="80" height="25" as="geometry" />
        </mxCell>
        <mxCell id="clwCwBsSRwlgGcYmcAVy-36" value="..." style="text;html=1;strokeColor=none;fillColor=none;align=center;verticalAlign=middle;whiteSpace=wrap;rounded=0;" parent="1" vertex="1">
          <mxGeometry x="797" y="70" width="30" height="25" as="geometry" />
        </mxCell>
        <mxCell id="clwCwBsSRwlgGcYmcAVy-39" value="" style="endArrow=classic;startArrow=classic;html=1;rounded=0;entryX=0.5;entryY=1;entryDx=0;entryDy=0;exitX=0.5;exitY=0;exitDx=0;exitDy=0;startSize=3;endSize=3;" parent="1" source="clwCwBsSRwlgGcYmcAVy-6" target="clwCwBsSRwlgGcYmcAVy-5" edge="1">
          <mxGeometry width="50" height="50" relative="1" as="geometry">
            <mxPoint x="326" y="40" as="sourcePoint" />
            <mxPoint x="327" y="20" as="targetPoint" />
          </mxGeometry>
        </mxCell>
        <mxCell id="clwCwBsSRwlgGcYmcAVy-40" value="" style="endArrow=classic;startArrow=classic;html=1;rounded=0;entryX=0.5;entryY=1;entryDx=0;entryDy=0;exitX=0.5;exitY=0;exitDx=0;exitDy=0;startSize=3;endSize=3;" parent="1" edge="1">
          <mxGeometry width="50" height="50" relative="1" as="geometry">
            <mxPoint x="318" y="30" as="sourcePoint" />
            <mxPoint x="318" y="10" as="targetPoint" />
          </mxGeometry>
        </mxCell>
        <mxCell id="clwCwBsSRwlgGcYmcAVy-41" value="" style="endArrow=classic;startArrow=classic;html=1;rounded=0;entryX=0.5;entryY=1;entryDx=0;entryDy=0;exitX=0.5;exitY=0;exitDx=0;exitDy=0;startSize=3;endSize=3;" parent="1" edge="1">
          <mxGeometry width="50" height="50" relative="1" as="geometry">
            <mxPoint x="478" y="30" as="sourcePoint" />
            <mxPoint x="478" y="10" as="targetPoint" />
          </mxGeometry>
        </mxCell>
        <mxCell id="clwCwBsSRwlgGcYmcAVy-42" value="" style="endArrow=classic;startArrow=classic;html=1;rounded=0;entryX=0.5;entryY=1;entryDx=0;entryDy=0;exitX=0.5;exitY=0;exitDx=0;exitDy=0;startSize=3;endSize=3;" parent="1" edge="1">
          <mxGeometry width="50" height="50" relative="1" as="geometry">
            <mxPoint x="327" y="70" as="sourcePoint" />
            <mxPoint x="327" y="50" as="targetPoint" />
          </mxGeometry>
        </mxCell>
        <mxCell id="clwCwBsSRwlgGcYmcAVy-43" value="" style="endArrow=classic;startArrow=classic;html=1;rounded=0;entryX=0.5;entryY=1;entryDx=0;entryDy=0;exitX=0.5;exitY=0;exitDx=0;exitDy=0;startSize=3;endSize=3;" parent="1" edge="1">
          <mxGeometry width="50" height="50" relative="1" as="geometry">
            <mxPoint x="416" y="70" as="sourcePoint" />
            <mxPoint x="416" y="50" as="targetPoint" />
          </mxGeometry>
        </mxCell>
        <mxCell id="clwCwBsSRwlgGcYmcAVy-44" value="" style="endArrow=classic;startArrow=classic;html=1;rounded=0;entryX=0.5;entryY=1;entryDx=0;entryDy=0;exitX=0.5;exitY=0;exitDx=0;exitDy=0;startSize=3;endSize=3;" parent="1" edge="1">
          <mxGeometry width="50" height="50" relative="1" as="geometry">
            <mxPoint x="658" y="30" as="sourcePoint" />
            <mxPoint x="658" y="10" as="targetPoint" />
          </mxGeometry>
        </mxCell>
        <mxCell id="clwCwBsSRwlgGcYmcAVy-45" value="" style="endArrow=classic;startArrow=classic;html=1;rounded=0;entryX=0.5;entryY=1;entryDx=0;entryDy=0;exitX=0.5;exitY=0;exitDx=0;exitDy=0;startSize=3;endSize=3;" parent="1" edge="1">
          <mxGeometry width="50" height="50" relative="1" as="geometry">
            <mxPoint x="758" y="30" as="sourcePoint" />
            <mxPoint x="758" y="10" as="targetPoint" />
          </mxGeometry>
        </mxCell>
        <mxCell id="clwCwBsSRwlgGcYmcAVy-46" value="" style="endArrow=classic;startArrow=classic;html=1;rounded=0;entryX=0.5;entryY=1;entryDx=0;entryDy=0;exitX=0.5;exitY=0;exitDx=0;exitDy=0;startSize=3;endSize=3;" parent="1" edge="1">
          <mxGeometry width="50" height="50" relative="1" as="geometry">
            <mxPoint x="667" y="70" as="sourcePoint" />
            <mxPoint x="667" y="50" as="targetPoint" />
          </mxGeometry>
        </mxCell>
        <mxCell id="clwCwBsSRwlgGcYmcAVy-47" value="" style="endArrow=classic;startArrow=classic;html=1;rounded=0;entryX=0.5;entryY=1;entryDx=0;entryDy=0;exitX=0.5;exitY=0;exitDx=0;exitDy=0;startSize=3;endSize=3;" parent="1" edge="1">
          <mxGeometry width="50" height="50" relative="1" as="geometry">
            <mxPoint x="757" y="70" as="sourcePoint" />
            <mxPoint x="757" y="50" as="targetPoint" />
          </mxGeometry>
        </mxCell>
        <mxCell id="clwCwBsSRwlgGcYmcAVy-48" value="" style="endArrow=classic;startArrow=classic;html=1;rounded=0;entryX=0.5;entryY=1;entryDx=0;entryDy=0;startSize=3;endSize=3;" parent="1" edge="1">
          <mxGeometry width="50" height="50" relative="1" as="geometry">
            <mxPoint x="667" y="120" as="sourcePoint" />
            <mxPoint x="667" y="95" as="targetPoint" />
            <Array as="points" />
          </mxGeometry>
        </mxCell>
        <mxCell id="clwCwBsSRwlgGcYmcAVy-49" value="" style="endArrow=classic;startArrow=classic;html=1;rounded=0;entryX=0.5;entryY=1;entryDx=0;entryDy=0;startSize=3;endSize=3;" parent="1" edge="1">
          <mxGeometry width="50" height="50" relative="1" as="geometry">
            <mxPoint x="757" y="121" as="sourcePoint" />
            <mxPoint x="757" y="96" as="targetPoint" />
            <Array as="points" />
          </mxGeometry>
        </mxCell>
        <mxCell id="clwCwBsSRwlgGcYmcAVy-50" value="" style="endArrow=classic;startArrow=classic;html=1;rounded=0;entryX=0.5;entryY=1;entryDx=0;entryDy=0;startSize=3;endSize=3;" parent="1" edge="1">
          <mxGeometry width="50" height="50" relative="1" as="geometry">
            <mxPoint x="416" y="120" as="sourcePoint" />
            <mxPoint x="416" y="95" as="targetPoint" />
            <Array as="points" />
          </mxGeometry>
        </mxCell>
        <mxCell id="clwCwBsSRwlgGcYmcAVy-51" value="" style="endArrow=classic;startArrow=classic;html=1;rounded=0;entryX=0.5;entryY=1;entryDx=0;entryDy=0;startSize=3;endSize=3;" parent="1" edge="1">
          <mxGeometry width="50" height="50" relative="1" as="geometry">
            <mxPoint x="327" y="120" as="sourcePoint" />
            <mxPoint x="327" y="95" as="targetPoint" />
            <Array as="points" />
          </mxGeometry>
        </mxCell>
        <mxCell id="clwCwBsSRwlgGcYmcAVy-52" value="" style="shape=flexArrow;endArrow=classic;html=1;rounded=0;exitX=0.5;exitY=0;exitDx=0;exitDy=0;fillColor=#A9C4EB;endSize=3;width=7;endWidth=14;startArrow=none;startFill=0;strokeColor=none;" parent="1" edge="1">
          <mxGeometry width="50" height="50" relative="1" as="geometry">
            <mxPoint x="432" y="-145.5" as="sourcePoint" />
            <mxPoint x="452" y="-145" as="targetPoint" />
            <Array as="points" />
          </mxGeometry>
        </mxCell>
        <mxCell id="clwCwBsSRwlgGcYmcAVy-53" value="" style="shape=flexArrow;endArrow=classic;html=1;rounded=0;exitX=0.5;exitY=0;exitDx=0;exitDy=0;fillColor=#9AC7BF;endSize=3;width=7;endWidth=14;startArrow=none;startFill=0;strokeColor=none;" parent="1" edge="1">
          <mxGeometry width="50" height="50" relative="1" as="geometry">
            <mxPoint x="432" y="-115.5" as="sourcePoint" />
            <mxPoint x="452" y="-115" as="targetPoint" />
            <Array as="points" />
          </mxGeometry>
        </mxCell>
        <mxCell id="clwCwBsSRwlgGcYmcAVy-54" value="disk io" style="text;html=1;strokeColor=none;fillColor=none;align=left;verticalAlign=middle;whiteSpace=wrap;rounded=0;" parent="1" vertex="1">
          <mxGeometry x="462" y="-160" width="60" height="30" as="geometry" />
        </mxCell>
        <mxCell id="clwCwBsSRwlgGcYmcAVy-55" value="network io" style="text;html=1;strokeColor=none;fillColor=none;align=left;verticalAlign=middle;whiteSpace=wrap;rounded=0;" parent="1" vertex="1">
          <mxGeometry x="462" y="-130" width="60" height="30" as="geometry" />
        </mxCell>
        <mxCell id="YOrxzBl4g7cKqVYeZxFf-1" value="&lt;font style=&quot;font-size: 18px;&quot;&gt;Guest VM&lt;/font&gt;" style="rounded=0;whiteSpace=wrap;html=1;align=center;" vertex="1" parent="1">
          <mxGeometry x="-160" y="-120" width="280" height="80" as="geometry" />
        </mxCell>
        <mxCell id="YOrxzBl4g7cKqVYeZxFf-2" value="Failover&lt;br&gt;Module" style="rounded=0;whiteSpace=wrap;html=1;fillColor=#CCCCCC;" vertex="1" parent="1">
          <mxGeometry x="287" y="-50" width="60" height="60" as="geometry" />
        </mxCell>
        <mxCell id="YOrxzBl4g7cKqVYeZxFf-56" style="edgeStyle=orthogonalEdgeStyle;rounded=0;orthogonalLoop=1;jettySize=auto;html=1;exitX=0.5;exitY=1;exitDx=0;exitDy=0;entryX=0.5;entryY=0;entryDx=0;entryDy=0;" edge="1" parent="1" source="YOrxzBl4g7cKqVYeZxFf-3" target="YOrxzBl4g7cKqVYeZxFf-4">
          <mxGeometry relative="1" as="geometry" />
        </mxCell>
        <mxCell id="YOrxzBl4g7cKqVYeZxFf-64" style="edgeStyle=orthogonalEdgeStyle;rounded=0;orthogonalLoop=1;jettySize=auto;html=1;exitX=1;exitY=0.5;exitDx=0;exitDy=0;entryX=0;entryY=0.5;entryDx=0;entryDy=0;" edge="1" parent="1" source="YOrxzBl4g7cKqVYeZxFf-3" target="YOrxzBl4g7cKqVYeZxFf-33">
          <mxGeometry relative="1" as="geometry" />
        </mxCell>
        <mxCell id="YOrxzBl4g7cKqVYeZxFf-3" value="&lt;font style=&quot;font-size: 18px;&quot;&gt;Migration&lt;br&gt;Module&lt;/font&gt;" style="rounded=0;whiteSpace=wrap;html=1;" vertex="1" parent="1">
          <mxGeometry x="-280" y="360" width="120" height="80" as="geometry" />
        </mxCell>
        <mxCell id="YOrxzBl4g7cKqVYeZxFf-67" style="edgeStyle=orthogonalEdgeStyle;rounded=0;orthogonalLoop=1;jettySize=auto;html=1;exitX=0.5;exitY=1;exitDx=0;exitDy=0;entryX=0;entryY=0.25;entryDx=0;entryDy=0;" edge="1" parent="1" source="YOrxzBl4g7cKqVYeZxFf-4" target="YOrxzBl4g7cKqVYeZxFf-66">
          <mxGeometry relative="1" as="geometry" />
        </mxCell>
        <mxCell id="YOrxzBl4g7cKqVYeZxFf-4" value="&lt;font style=&quot;font-size: 18px;&quot;&gt;Backup Image&lt;br&gt;Module&lt;/font&gt;" style="rounded=0;whiteSpace=wrap;html=1;fillColor=#CCCCCC;" vertex="1" parent="1">
          <mxGeometry x="-280" y="500" width="120" height="80" as="geometry" />
        </mxCell>
        <mxCell id="YOrxzBl4g7cKqVYeZxFf-69" style="edgeStyle=orthogonalEdgeStyle;rounded=0;orthogonalLoop=1;jettySize=auto;html=1;exitX=1;exitY=0.25;exitDx=0;exitDy=0;entryX=0.25;entryY=0;entryDx=0;entryDy=0;" edge="1" parent="1" source="YOrxzBl4g7cKqVYeZxFf-5" target="YOrxzBl4g7cKqVYeZxFf-46">
          <mxGeometry relative="1" as="geometry" />
        </mxCell>
        <mxCell id="YOrxzBl4g7cKqVYeZxFf-5" value="&lt;font style=&quot;font-size: 18px;&quot;&gt;Failover&lt;br&gt;Module&lt;/font&gt;" style="rounded=0;whiteSpace=wrap;html=1;fillColor=#CCCCCC;" vertex="1" parent="1">
          <mxGeometry x="-280" y="740" width="120" height="80" as="geometry" />
        </mxCell>
        <mxCell id="YOrxzBl4g7cKqVYeZxFf-7" value="&lt;font style=&quot;font-size: 18px;&quot;&gt;RAM State&lt;br&gt;(Duplicate)&lt;br&gt;&lt;/font&gt;" style="rounded=0;whiteSpace=wrap;html=1;fillColor=#CCCCCC;" vertex="1" parent="1">
          <mxGeometry x="-270" y="-25" width="120" height="60" as="geometry" />
        </mxCell>
        <mxCell id="YOrxzBl4g7cKqVYeZxFf-12" value="&lt;font style=&quot;font-size: 18px;&quot;&gt;RAM Load Handler&lt;/font&gt;" style="rounded=0;whiteSpace=wrap;html=1;fillColor=#CCCCCC;" vertex="1" parent="1">
          <mxGeometry y="780" width="240" height="60" as="geometry" />
        </mxCell>
        <mxCell id="YOrxzBl4g7cKqVYeZxFf-13" value="&lt;font style=&quot;font-size: 18px;&quot;&gt;CPU States&lt;/font&gt;" style="rounded=0;whiteSpace=wrap;html=1;" vertex="1" parent="1">
          <mxGeometry x="-570" width="100" height="40" as="geometry" />
        </mxCell>
        <mxCell id="YOrxzBl4g7cKqVYeZxFf-14" value="" style="endArrow=classic;html=1;rounded=0;strokeWidth=3;" edge="1" parent="1">
          <mxGeometry width="50" height="50" relative="1" as="geometry">
            <mxPoint x="-720" y="100" as="sourcePoint" />
            <mxPoint x="-600" y="100" as="targetPoint" />
          </mxGeometry>
        </mxCell>
        <mxCell id="YOrxzBl4g7cKqVYeZxFf-15" value="" style="endArrow=classic;html=1;rounded=0;strokeWidth=3;strokeColor=#0066CC;" edge="1" parent="1">
          <mxGeometry width="50" height="50" relative="1" as="geometry">
            <mxPoint x="-720" y="220" as="sourcePoint" />
            <mxPoint x="-600" y="220" as="targetPoint" />
          </mxGeometry>
        </mxCell>
        <mxCell id="YOrxzBl4g7cKqVYeZxFf-20" value="" style="endArrow=none;dashed=1;html=1;rounded=0;" edge="1" parent="1">
          <mxGeometry width="50" height="50" relative="1" as="geometry">
            <mxPoint x="-800" y="920" as="sourcePoint" />
            <mxPoint x="240" y="920" as="targetPoint" />
          </mxGeometry>
        </mxCell>
        <mxCell id="YOrxzBl4g7cKqVYeZxFf-21" value="&lt;font style=&quot;font-size: 18px;&quot;&gt;User&lt;/font&gt;" style="text;html=1;strokeColor=none;fillColor=none;align=center;verticalAlign=middle;whiteSpace=wrap;rounded=0;" vertex="1" parent="1">
          <mxGeometry x="-800" y="880" width="100" height="40" as="geometry" />
        </mxCell>
        <mxCell id="YOrxzBl4g7cKqVYeZxFf-22" value="&lt;font style=&quot;font-size: 18px;&quot;&gt;Kernel&lt;/font&gt;" style="text;html=1;strokeColor=none;fillColor=none;align=center;verticalAlign=middle;whiteSpace=wrap;rounded=0;" vertex="1" parent="1">
          <mxGeometry x="-800" y="920" width="100" height="40" as="geometry" />
        </mxCell>
        <mxCell id="YOrxzBl4g7cKqVYeZxFf-23" value="&lt;font style=&quot;font-size: 18px;&quot;&gt;Qemu Monitor&lt;/font&gt;" style="rounded=0;whiteSpace=wrap;html=1;align=center;" vertex="1" parent="1">
          <mxGeometry x="-720" y="360" width="160" height="80" as="geometry" />
        </mxCell>
        <mxCell id="YOrxzBl4g7cKqVYeZxFf-24" value="" style="endArrow=classic;html=1;rounded=0;strokeWidth=3;" edge="1" parent="1">
          <mxGeometry width="50" height="50" relative="1" as="geometry">
            <mxPoint x="-320" y="199.5" as="sourcePoint" />
            <mxPoint x="-240" y="199.5" as="targetPoint" />
          </mxGeometry>
        </mxCell>
        <mxCell id="YOrxzBl4g7cKqVYeZxFf-27" value="&lt;font style=&quot;font-size: 18px;&quot;&gt;Text&lt;/font&gt;" style="text;html=1;strokeColor=none;fillColor=none;align=center;verticalAlign=middle;whiteSpace=wrap;rounded=0;" vertex="1" parent="1">
          <mxGeometry x="-720" y="-35" width="60" height="30" as="geometry" />
        </mxCell>
        <mxCell id="YOrxzBl4g7cKqVYeZxFf-28" value="&lt;font style=&quot;font-size: 18px;&quot;&gt;0) start migration&lt;/font&gt;" style="text;html=1;strokeColor=none;fillColor=none;align=center;verticalAlign=middle;whiteSpace=wrap;rounded=0;" vertex="1" parent="1">
          <mxGeometry x="-500" y="360" width="160" height="40" as="geometry" />
        </mxCell>
        <mxCell id="YOrxzBl4g7cKqVYeZxFf-31" value="&lt;span style=&quot;font-size: 18px;&quot;&gt;control flow&lt;/span&gt;" style="text;html=1;strokeColor=none;fillColor=none;align=center;verticalAlign=middle;whiteSpace=wrap;rounded=0;" vertex="1" parent="1">
          <mxGeometry x="-720" y="60" width="120" height="40" as="geometry" />
        </mxCell>
        <mxCell id="YOrxzBl4g7cKqVYeZxFf-32" value="&lt;font style=&quot;font-size: 18px;&quot;&gt;1.1) activate&lt;/font&gt;" style="text;html=1;strokeColor=none;fillColor=none;align=center;verticalAlign=middle;whiteSpace=wrap;rounded=0;" vertex="1" parent="1">
          <mxGeometry x="-340" y="450" width="120" height="40" as="geometry" />
        </mxCell>
        <mxCell id="YOrxzBl4g7cKqVYeZxFf-63" style="edgeStyle=orthogonalEdgeStyle;rounded=0;orthogonalLoop=1;jettySize=auto;html=1;exitX=0;exitY=0.75;exitDx=0;exitDy=0;entryX=1;entryY=0.75;entryDx=0;entryDy=0;" edge="1" parent="1" source="YOrxzBl4g7cKqVYeZxFf-33" target="YOrxzBl4g7cKqVYeZxFf-3">
          <mxGeometry relative="1" as="geometry" />
        </mxCell>
        <mxCell id="YOrxzBl4g7cKqVYeZxFf-33" value="&lt;font style=&quot;font-size: 18px;&quot;&gt;RAM Pre-copy Handler&lt;/font&gt;" style="rounded=0;whiteSpace=wrap;html=1;fillColor=#CCCCCC;" vertex="1" parent="1">
          <mxGeometry y="360" width="280" height="80" as="geometry" />
        </mxCell>
        <mxCell id="YOrxzBl4g7cKqVYeZxFf-44" value="&lt;font style=&quot;font-size: 18px;&quot;&gt;1.3) start pre-copy&lt;br&gt;&lt;/font&gt;" style="text;html=1;strokeColor=none;fillColor=none;align=center;verticalAlign=middle;whiteSpace=wrap;rounded=0;" vertex="1" parent="1">
          <mxGeometry x="-160" y="360" width="160" height="40" as="geometry" />
        </mxCell>
        <mxCell id="YOrxzBl4g7cKqVYeZxFf-45" value="&lt;font style=&quot;font-size: 18px;&quot;&gt;1.2) backup setup&lt;/font&gt;" style="text;html=1;strokeColor=none;fillColor=none;align=center;verticalAlign=middle;whiteSpace=wrap;rounded=0;" vertex="1" parent="1">
          <mxGeometry x="-160" y="540" width="160" height="40" as="geometry" />
        </mxCell>
        <mxCell id="YOrxzBl4g7cKqVYeZxFf-70" style="edgeStyle=orthogonalEdgeStyle;rounded=0;orthogonalLoop=1;jettySize=auto;html=1;exitX=0;exitY=0.25;exitDx=0;exitDy=0;entryX=1.008;entryY=0.633;entryDx=0;entryDy=0;entryPerimeter=0;" edge="1" parent="1" source="YOrxzBl4g7cKqVYeZxFf-46" target="YOrxzBl4g7cKqVYeZxFf-12">
          <mxGeometry relative="1" as="geometry" />
        </mxCell>
        <mxCell id="YOrxzBl4g7cKqVYeZxFf-46" value="&lt;font style=&quot;font-size: 18px;&quot;&gt;Disk Interface&lt;/font&gt;" style="rounded=0;whiteSpace=wrap;html=1;align=center;" vertex="1" parent="1">
          <mxGeometry x="320" y="800" width="160" height="80" as="geometry" />
        </mxCell>
        <mxCell id="YOrxzBl4g7cKqVYeZxFf-48" value="&lt;font style=&quot;font-size: 18px;&quot;&gt;2.2) memory backup&lt;/font&gt;" style="text;html=1;strokeColor=none;fillColor=none;align=center;verticalAlign=middle;whiteSpace=wrap;rounded=0;" vertex="1" parent="1">
          <mxGeometry x="440" y="580" width="180" height="40" as="geometry" />
        </mxCell>
        <mxCell id="YOrxzBl4g7cKqVYeZxFf-52" value="&lt;font style=&quot;font-size: 18px;&quot;&gt;2.1) memory pre-copy&lt;/font&gt;" style="text;html=1;strokeColor=none;fillColor=none;align=center;verticalAlign=middle;whiteSpace=wrap;rounded=0;" vertex="1" parent="1">
          <mxGeometry x="360" y="340" width="200" height="40" as="geometry" />
        </mxCell>
        <mxCell id="YOrxzBl4g7cKqVYeZxFf-61" value="" style="endArrow=classic;html=1;rounded=0;strokeWidth=3;dashed=1;dashPattern=1 1;" edge="1" parent="1">
          <mxGeometry width="50" height="50" relative="1" as="geometry">
            <mxPoint x="-720" y="160" as="sourcePoint" />
            <mxPoint x="-600" y="160" as="targetPoint" />
          </mxGeometry>
        </mxCell>
        <mxCell id="YOrxzBl4g7cKqVYeZxFf-62" value="&lt;span style=&quot;font-size: 18px;&quot;&gt;data updates&lt;/span&gt;" style="text;html=1;strokeColor=none;fillColor=none;align=center;verticalAlign=middle;whiteSpace=wrap;rounded=0;" vertex="1" parent="1">
          <mxGeometry x="-720" y="120" width="120" height="40" as="geometry" />
        </mxCell>
        <mxCell id="YOrxzBl4g7cKqVYeZxFf-65" value="&lt;font style=&quot;font-size: 18px;&quot;&gt;3.1) downtime&lt;/font&gt;" style="text;html=1;strokeColor=none;fillColor=none;align=center;verticalAlign=middle;whiteSpace=wrap;rounded=0;" vertex="1" parent="1">
          <mxGeometry x="-160" y="420" width="160" height="40" as="geometry" />
        </mxCell>
        <mxCell id="YOrxzBl4g7cKqVYeZxFf-66" value="&lt;font style=&quot;font-size: 18px;&quot;&gt;RAM Backup Thread&lt;/font&gt;" style="rounded=0;whiteSpace=wrap;html=1;fillColor=#CCCCCC;" vertex="1" parent="1">
          <mxGeometry y="620" width="240" height="60" as="geometry" />
        </mxCell>
        <mxCell id="YOrxzBl4g7cKqVYeZxFf-68" value="&lt;font style=&quot;font-size: 18px;&quot;&gt;3.2) create backup thread&lt;/font&gt;" style="text;html=1;strokeColor=none;fillColor=none;align=center;verticalAlign=middle;whiteSpace=wrap;rounded=0;" vertex="1" parent="1">
          <mxGeometry x="-220" y="600" width="220" height="40" as="geometry" />
        </mxCell>
        <mxCell id="YOrxzBl4g7cKqVYeZxFf-71" value="&lt;span style=&quot;font-size: 18px;&quot;&gt;asynchronous io&lt;/span&gt;" style="text;html=1;strokeColor=none;fillColor=none;align=center;verticalAlign=middle;whiteSpace=wrap;rounded=0;" vertex="1" parent="1">
          <mxGeometry x="-720" y="180" width="140" height="40" as="geometry" />
        </mxCell>
        <mxCell id="YOrxzBl4g7cKqVYeZxFf-72" value="" style="endArrow=classic;html=1;rounded=0;strokeWidth=3;strokeColor=#0066CC;" edge="1" parent="1">
          <mxGeometry width="50" height="50" relative="1" as="geometry">
            <mxPoint x="-330" y="109" as="sourcePoint" />
            <mxPoint x="-210" y="109" as="targetPoint" />
          </mxGeometry>
        </mxCell>
        <mxCell id="YOrxzBl4g7cKqVYeZxFf-73" value="" style="endArrow=classic;html=1;rounded=0;strokeWidth=3;strokeColor=#0066CC;entryX=0.75;entryY=0;entryDx=0;entryDy=0;" edge="1" parent="1" target="YOrxzBl4g7cKqVYeZxFf-46">
          <mxGeometry width="50" height="50" relative="1" as="geometry">
            <mxPoint x="280" y="420" as="sourcePoint" />
            <mxPoint x="360" y="420" as="targetPoint" />
            <Array as="points">
              <mxPoint x="440" y="420" />
            </Array>
          </mxGeometry>
        </mxCell>
        <mxCell id="YOrxzBl4g7cKqVYeZxFf-74" value="" style="endArrow=classic;html=1;rounded=0;strokeWidth=3;strokeColor=#0066CC;" edge="1" parent="1">
          <mxGeometry width="50" height="50" relative="1" as="geometry">
            <mxPoint x="280" y="380" as="sourcePoint" />
            <mxPoint x="720" y="380" as="targetPoint" />
          </mxGeometry>
        </mxCell>
        <mxCell id="YOrxzBl4g7cKqVYeZxFf-75" value="" style="endArrow=classic;html=1;rounded=0;strokeWidth=3;dashed=1;dashPattern=1 1;" edge="1" parent="1">
          <mxGeometry width="50" height="50" relative="1" as="geometry">
            <mxPoint x="-480" y="149" as="sourcePoint" />
            <mxPoint x="-360" y="149" as="targetPoint" />
          </mxGeometry>
        </mxCell>
        <mxCell id="YOrxzBl4g7cKqVYeZxFf-76" value="" style="endArrow=classic;html=1;rounded=0;strokeWidth=3;dashed=1;dashPattern=1 1;" edge="1" parent="1">
          <mxGeometry width="50" height="50" relative="1" as="geometry">
            <mxPoint x="-160" y="539" as="sourcePoint" />
            <mxPoint y="539" as="targetPoint" />
          </mxGeometry>
        </mxCell>
        <mxCell id="YOrxzBl4g7cKqVYeZxFf-77" value="&lt;font style=&quot;font-size: 18px;&quot;&gt;RAM State&lt;br&gt;(Duplicate)&lt;br&gt;&lt;/font&gt;" style="shape=document;whiteSpace=wrap;html=1;boundedLbl=1;fillColor=#CCCCCC;" vertex="1" parent="1">
          <mxGeometry y="500" width="120" height="80" as="geometry" />
        </mxCell>
        <mxCell id="YOrxzBl4g7cKqVYeZxFf-78" value="&lt;font style=&quot;font-size: 18px;&quot;&gt;RAM State&lt;br&gt;&lt;/font&gt;" style="shape=document;whiteSpace=wrap;html=1;boundedLbl=1;" vertex="1" parent="1">
          <mxGeometry x="160" y="500" width="120" height="80" as="geometry" />
        </mxCell>
        <mxCell id="YOrxzBl4g7cKqVYeZxFf-79" value="" style="endArrow=classic;html=1;rounded=0;strokeWidth=3;dashed=1;dashPattern=1 1;" edge="1" parent="1">
          <mxGeometry width="50" height="50" relative="1" as="geometry">
            <mxPoint x="219.5" y="440" as="sourcePoint" />
            <mxPoint x="219.5" y="500" as="targetPoint" />
          </mxGeometry>
        </mxCell>
        <mxCell id="YOrxzBl4g7cKqVYeZxFf-80" value="" style="endArrow=classic;html=1;rounded=0;strokeWidth=3;dashed=1;dashPattern=1 1;" edge="1" parent="1">
          <mxGeometry width="50" height="50" relative="1" as="geometry">
            <mxPoint x="59.5" y="440" as="sourcePoint" />
            <mxPoint x="59.5" y="500" as="targetPoint" />
          </mxGeometry>
        </mxCell>
        <mxCell id="YOrxzBl4g7cKqVYeZxFf-81" value="" style="endArrow=classic;html=1;rounded=0;strokeWidth=3;" edge="1" parent="1">
          <mxGeometry width="50" height="50" relative="1" as="geometry">
            <mxPoint x="-560" y="480" as="sourcePoint" />
            <mxPoint x="-400" y="480" as="targetPoint" />
          </mxGeometry>
        </mxCell>
      </root>
    </mxGraphModel>
  </diagram>
</mxfile>
